<?xml version="1.0" encoding="UTF-8"?><svg id="Huetown_script_logo" xmlns="http://www.w3.org/2000/svg" viewBox="0 0 1185.37 204.32"><defs><style>.cls-1{fill:#555;stroke-width:0px;}</style></defs><g id="Gray_-_sized_up_from_2016_s"><path class="cls-1" d="m1170.32,142.71c-23.79,0-47.58,29.85-47.58,19.6s50.39-58.77.93-58.77c-23.31,0-28.92,15.86-36.37,15.86s12.36-15.86-10.73-15.86c-19.57,0-33.11,15.83-41.04,15.83-18.39,0-11.16-15.83-29.85-15.83-22.41,0-49.87,58.77-62.96,58.77s25.18-58.77,0-58.77c-23.28,0-61.54,58.77-77.43,58.77-11.19,0,39.2-58.77,11.22-58.77-40.8,0-40.56,18.21-74.54,28.35,0-7.69-13.6-28.35-45.77-28.35-39.17,0-65.37,16.47-84.88,48.52-16.8,27.53-53.64,27.74-53.64,10.98,0-12.61,32.2-53.19,32.2-53.19,0,0,55-2.56,55-18.42,0-19.6-38.23-7.99-38.23-7.99,0,0,33.59-47.94,4.67-47.94-22.41,0-52.26,55.48-52.26,55.48,0,0-51.29-.09-51.29,17.64,0,19.54,26.11,7.54,36.37,7.54-25.63,57.35-123.06,75.08-124.89,64.1,81.38-28.4,94.11-76.71,41.91-76.71s-78.97,42-77.01,68.9c-19,7.18-38.08,9.47-38.08-1.05,0-19.54,60.52-67.84,22.74-67.84-32.63,0-60.52,69.23-80.09,69.23-28.71,0,49.3-69.23,8.29-69.23-29.85,0-53.46,61.57-97,61.57-28.95,0,20.93-89.07,55-115.67C355.11,94.2,410.17,0,332.73,0,286.06,0,239.53,73.24,239.53,73.24c0,0-8.41,7.57-31.69,9.92-16.37,1.63-20.08,1.27-20.08,1.24,0,0,53.16-84.4-12.66-84.4-73.7,0-68.06,83.95-14.89,59.7-5.63,14.95-56.64,93.83-80.92,79.27C-9.37,86.05-31.05,204.32,52.23,204.32c70.62,0,116.48-86.51,116.48-86.51,0,0,4.94,1.51,20.11,0,22.1-2.23,34.13-8.17,34.13-8.17,0,0-65.61,94.68,11.82,94.68,37.33,0,74.6-42,74.6-42,0,0-16.77,42,20.56,42,30.27,0,49.39-18.67,49.39-18.67,0,0-7.42,18.67,15.86,18.67,26.14,0,58.38-13.54,58.38-13.54,0,0,4.59,13.54,36.06,13.54,50.39,0,95.16-25.21,95.16-25.21,0,0,12.81,25.21,41.73,25.21s50.84-28.46,50.84-28.46c0,0,9.38,28.46,42.79,28.46,62.99,0,83.1-46.08,83.1-57.38,11.67-4.43,29.85-10.73,39.65-20.05-4.67,11.16-41.94,77.43-4.67,77.43s71.85-48.52,71.85-48.52c0,0-24.24,48.52,10.25,48.52s77.86-64.83,85.36-75.08c6.51,11.16,25.63,7.45,35.88,2.78-9.77,15.83-65.28,72.31-24.24,72.31,28.92,0,49.45-70.92,75.53-70.92,32.63,0-58.77,70.92,16.82,70.92,87.67,0,85.83-61.6,60.62-61.6Zm-661.53-15.68c22.04,0-4.67,23.79-36.1,35.73,1.57-12.42,16.8-35.73,36.1-35.73Zm232.36-1.81c-5.94,12.57,5.7,37.54,38.81,28.22-44.06,50.14-103.19-7.9-38.81-28.22Zm21.56-1.63c8.11-5.43,19.15,6.54,19.15,13.78-20.66,5.97-27.53-8.14-19.15-13.78Z"/></g></svg>